<svg width="198" height="40" viewBox="0 0 198 40" fill="none" xmlns="http://www.w3.org/2000/svg">
<g id="Layer 1">
<g id="Group">
<g id="Group_2">
<path id="Vector" d="M41.887 37.9276C41.3662 37.9276 40.8999 37.8539 40.4936 37.7094C40.0873 37.5649 39.6974 37.3249 39.3293 36.9895C39.2502 36.9323 39.1902 36.8614 39.1493 36.7768C39.1084 36.6923 39.0893 36.6078 39.0893 36.5205C39.0893 36.3814 39.1411 36.2587 39.242 36.1497C39.3429 36.0406 39.471 35.986 39.6238 35.986C39.7383 35.986 39.8474 36.0269 39.951 36.106C40.2264 36.3596 40.5154 36.5532 40.8154 36.6841C41.1181 36.815 41.4698 36.8804 41.8761 36.8804C42.1652 36.8804 42.4324 36.8341 42.6751 36.7387C42.9178 36.6459 43.1114 36.5178 43.2586 36.3569C43.4032 36.1987 43.4768 36.0106 43.4768 35.8006C43.4768 35.5388 43.4032 35.3234 43.2532 35.1516C43.1032 34.9798 42.8905 34.8408 42.6096 34.7262C42.3315 34.6144 41.9961 34.5163 41.6034 34.4372C41.2408 34.3718 40.9163 34.2818 40.63 34.1645C40.3436 34.05 40.0982 33.9027 39.8937 33.7228C39.6892 33.5428 39.5338 33.3328 39.4247 33.0847C39.3156 32.8393 39.2611 32.5502 39.2611 32.223C39.2611 31.7813 39.3756 31.3995 39.6101 31.0805C39.8419 30.7614 40.1582 30.516 40.5563 30.3415C40.9544 30.167 41.4044 30.0797 41.9061 30.0797C42.3642 30.0797 42.7923 30.1506 43.1905 30.2924C43.5886 30.4342 43.9131 30.6251 44.1585 30.865C44.333 31.0177 44.4203 31.1814 44.4203 31.3559C44.4203 31.4868 44.3685 31.6095 44.2621 31.7213C44.1585 31.8331 44.0358 31.8903 43.8967 31.8903C43.7958 31.8903 43.7086 31.8603 43.6349 31.8031C43.5177 31.6804 43.3623 31.5686 43.1659 31.4704C42.9696 31.3722 42.7596 31.2904 42.5387 31.225C42.3179 31.1595 42.1052 31.1268 41.9007 31.1268C41.5734 31.1268 41.2953 31.1732 41.0608 31.2632C40.829 31.3531 40.6518 31.4786 40.5263 31.634C40.4036 31.7894 40.3409 31.9721 40.3409 32.1848C40.3409 32.433 40.4118 32.6348 40.5536 32.7956C40.6954 32.9538 40.8945 33.0847 41.1481 33.1829C41.4017 33.281 41.6934 33.371 42.0179 33.4501C42.416 33.5373 42.7733 33.6355 43.0896 33.7446C43.4059 33.8537 43.6731 33.9927 43.8885 34.1645C44.1067 34.3363 44.273 34.5463 44.3903 34.8026C44.5048 35.0562 44.5648 35.3725 44.5648 35.7488C44.5648 36.1851 44.4421 36.5669 44.1939 36.8914C43.9485 37.2186 43.6213 37.4722 43.2205 37.6549C42.8169 37.8376 42.3697 37.9276 41.8761 37.9276H41.887Z" fill="#09D78E"/>
<path id="Vector_2" d="M48.4642 37.9275C47.8615 37.9275 47.338 37.8021 46.8962 37.5512C46.4517 37.3003 46.1109 36.9568 45.8682 36.5177C45.6255 36.0787 45.5028 35.577 45.5028 35.0098C45.5028 34.3717 45.631 33.8236 45.89 33.371C46.1491 32.9183 46.4845 32.5693 46.899 32.3266C47.3134 32.0839 47.7525 31.9612 48.216 31.9612C48.5705 31.9612 48.9086 32.0321 49.2277 32.1739C49.5467 32.3157 49.833 32.512 50.0839 32.7629C50.3348 33.0137 50.5311 33.3082 50.6784 33.6464C50.8229 33.9845 50.8992 34.3526 50.9074 34.7507C50.8992 34.8953 50.842 35.0152 50.7329 35.1107C50.6238 35.2061 50.4984 35.2525 50.3511 35.2525H46.1163L45.8546 34.3254H49.9476L49.7403 34.5217V34.249C49.7267 33.9954 49.6422 33.7718 49.4894 33.5809C49.3367 33.39 49.1486 33.2401 48.9223 33.1337C48.6959 33.0301 48.4614 32.9756 48.2133 32.9756C47.9951 32.9756 47.7879 33.011 47.5888 33.0792C47.3871 33.1501 47.2125 33.2592 47.0544 33.4119C46.8989 33.5646 46.7735 33.7663 46.6835 34.0172C46.5935 34.2681 46.5472 34.5789 46.5472 34.9471C46.5472 35.3452 46.6317 35.6942 46.7981 35.9915C46.9644 36.2887 47.1907 36.5205 47.4743 36.6841C47.7579 36.8477 48.0688 36.9295 48.4096 36.9295C48.6768 36.9295 48.9005 36.9022 49.075 36.8477C49.2495 36.7931 49.394 36.7277 49.5113 36.6459C49.6258 36.5668 49.7294 36.4905 49.8167 36.4168C49.9257 36.3514 50.0348 36.3187 50.1439 36.3187C50.2748 36.3187 50.3838 36.365 50.4711 36.455C50.5584 36.545 50.602 36.6541 50.602 36.7768C50.602 36.9377 50.5229 37.0822 50.362 37.2131C50.1657 37.4012 49.8957 37.5703 49.5522 37.7148C49.2059 37.8593 48.8459 37.933 48.4696 37.933L48.4642 37.9275Z" fill="#09D78E"/>
<path id="Vector_3" d="M54.5177 31.9612C54.8313 31.9612 55.1176 32.013 55.3794 32.1139C55.6412 32.2148 55.8675 32.3457 56.0611 32.5011C56.252 32.6565 56.4047 32.8201 56.5138 32.9865C56.6229 33.1528 56.6774 33.3001 56.6774 33.4228L56.4265 33.4337V32.5638C56.4265 32.4111 56.4783 32.2802 56.5792 32.1711C56.6801 32.0621 56.811 32.0075 56.9719 32.0075C57.1328 32.0075 57.2609 32.0593 57.3646 32.1657C57.4655 32.2693 57.5173 32.4029 57.5173 32.5638V37.3658C57.5173 37.982 57.3864 38.4838 57.1246 38.8737C56.8628 39.2609 56.5165 39.5472 56.0829 39.7272C55.6521 39.9072 55.1776 39.9999 54.6623 39.9999C54.4796 39.9999 54.2669 39.9754 54.0187 39.929C53.7733 39.8826 53.5443 39.8254 53.337 39.7599C53.1298 39.6945 52.988 39.6291 52.9062 39.5636C52.7398 39.4763 52.628 39.3755 52.5735 39.2582C52.519 39.1409 52.5162 39.0264 52.5681 38.9092C52.6417 38.751 52.7398 38.6528 52.8626 38.6147C52.9853 38.5765 53.1271 38.5901 53.2879 38.6474C53.3616 38.6692 53.4734 38.7101 53.6261 38.7674C53.7788 38.8246 53.9478 38.8792 54.1387 38.9255C54.3269 38.9719 54.5041 38.9964 54.6732 38.9964C55.254 38.9964 55.6903 38.8628 55.9848 38.5929C56.2793 38.3256 56.4265 37.9575 56.4265 37.4939V36.515L56.5465 36.5914C56.5247 36.7441 56.4565 36.8968 56.3447 37.0549C56.2302 37.2103 56.0857 37.3549 55.903 37.4858C55.723 37.6166 55.513 37.723 55.2758 37.8075C55.0413 37.8921 54.7986 37.933 54.5532 37.933C54.0378 37.933 53.577 37.8048 53.1707 37.5457C52.7644 37.2867 52.4426 36.9349 52.2027 36.4877C51.9627 36.0405 51.8427 35.5279 51.8427 34.9471C51.8427 34.3663 51.9627 33.8536 52.2027 33.4064C52.4426 32.9592 52.7644 32.6074 53.1652 32.3511C53.5688 32.0921 54.0187 31.9639 54.5205 31.9639L54.5177 31.9612ZM54.6814 32.9619C54.3269 32.9619 54.0133 33.0492 53.746 33.2237C53.4761 33.3982 53.2661 33.6327 53.1134 33.9327C52.9607 34.2299 52.8844 34.568 52.8844 34.9471C52.8844 35.3261 52.9607 35.6615 53.1134 35.9587C53.2661 36.256 53.4761 36.4932 53.746 36.6677C54.016 36.8422 54.3269 36.9295 54.6814 36.9295C55.0358 36.9295 55.3494 36.845 55.6194 36.6732C55.8866 36.5014 56.0993 36.2669 56.252 35.9642C56.4047 35.6642 56.4811 35.3234 56.4811 34.9471C56.4811 34.5708 56.4047 34.2299 56.252 33.93C56.0993 33.6273 55.8893 33.3928 55.6194 33.221C55.3494 33.0492 55.0386 32.9647 54.6814 32.9647V32.9619Z" fill="#09D78E"/>
<path id="Vector_4" d="M63.2927 32.0922C63.4454 32.0922 63.5736 32.144 63.6799 32.2503C63.7862 32.3567 63.8381 32.4876 63.8381 32.6484V35.5116C63.8381 36.267 63.6281 36.8559 63.2054 37.2813C62.7855 37.7067 62.1911 37.9194 61.4194 37.9194C60.6477 37.9194 60.0668 37.7067 59.6496 37.2813C59.2324 36.8559 59.0225 36.267 59.0225 35.5116V32.6484C59.0225 32.4903 59.0743 32.3567 59.1752 32.2503C59.2761 32.1467 59.4069 32.0922 59.5678 32.0922C59.7287 32.0922 59.8487 32.144 59.955 32.2503C60.0614 32.3567 60.1132 32.4876 60.1132 32.6484V35.5116C60.1132 35.9834 60.225 36.3351 60.4459 36.5696C60.6667 36.8014 60.9912 36.9187 61.4194 36.9187C61.8475 36.9187 62.1856 36.8041 62.4092 36.5696C62.6328 36.3379 62.7473 35.9861 62.7473 35.5116V32.6484C62.7473 32.4903 62.7991 32.3567 62.9 32.2503C63.0009 32.1467 63.1318 32.0922 63.2927 32.0922V32.0922Z" fill="#09D78E"/>
<path id="Vector_5" d="M65.8968 37.8185C65.7359 37.8185 65.6078 37.7667 65.5041 37.6604C65.4032 37.5567 65.3514 37.4231 65.3514 37.2622V32.6457C65.3514 32.4875 65.4032 32.3539 65.5041 32.2476C65.605 32.144 65.7359 32.0894 65.8968 32.0894C66.0577 32.0894 66.1777 32.1412 66.284 32.2476C66.3876 32.3539 66.4422 32.4848 66.4422 32.6457V33.8646L66.3331 33.3956C66.3904 33.1938 66.4804 33.0029 66.6003 32.8284C66.7203 32.6539 66.8621 32.5012 67.0312 32.3703C67.1975 32.2394 67.3857 32.1385 67.5929 32.0649C67.8001 31.9913 68.0156 31.9558 68.2419 31.9558C68.43 31.9558 68.5937 32.0076 68.7327 32.1085C68.8718 32.2094 68.94 32.3376 68.94 32.4903C68.94 32.6866 68.8881 32.8284 68.7873 32.9211C68.6864 33.0111 68.5718 33.0575 68.4491 33.0575C68.3401 33.0575 68.2337 33.0329 68.1328 32.9866C68.0319 32.9402 67.9119 32.9157 67.7729 32.9157C67.6202 32.9157 67.4647 32.9566 67.3039 33.0356C67.143 33.1147 66.9985 33.2347 66.8676 33.3901C66.7367 33.5456 66.6331 33.731 66.5567 33.9409C66.4804 34.1509 66.4422 34.3882 66.4422 34.6499V37.2622C66.4422 37.4204 66.3876 37.554 66.284 37.6604C66.1804 37.7667 66.0495 37.8185 65.8968 37.8185V37.8185Z" fill="#09D78E"/>
<path id="Vector_6" d="M75.3917 34.9553C75.3917 35.5361 75.2635 36.0487 75.0099 36.4959C74.7563 36.9431 74.41 37.2922 73.9737 37.5457C73.5402 37.7993 73.0493 37.9275 72.504 37.9275C71.9586 37.9275 71.4705 37.7993 71.0342 37.5457C70.5979 37.2922 70.2516 36.9404 69.9953 36.4959C69.7362 36.0487 69.6081 35.5361 69.6081 34.9553C69.6081 34.3744 69.7362 33.8509 69.9953 33.4037C70.2543 32.9565 70.6006 32.6047 71.0342 32.3484C71.4705 32.0893 71.9586 31.9612 72.504 31.9612C73.0493 31.9612 73.5374 32.0893 73.9737 32.3484C74.41 32.6074 74.7536 32.9592 75.0099 33.4037C75.2635 33.8509 75.3917 34.3663 75.3917 34.9553ZM74.3037 34.9553C74.3037 34.5571 74.2246 34.2108 74.0637 33.9163C73.9056 33.6218 73.6874 33.39 73.4175 33.221C73.1448 33.0492 72.8421 32.9647 72.5067 32.9647C72.1713 32.9647 71.8686 33.0492 71.5932 33.221C71.3178 33.3928 71.0996 33.6246 70.9388 33.9163C70.7806 34.2108 70.6988 34.5571 70.6988 34.9553C70.6988 35.3534 70.7779 35.6806 70.9388 35.9805C71.0996 36.2778 71.3151 36.5095 71.5932 36.6759C71.8686 36.8422 72.174 36.9268 72.5067 36.9268C72.8394 36.9268 73.1448 36.8422 73.4175 36.6759C73.6901 36.5095 73.9056 36.2778 74.0637 35.9805C74.2246 35.6833 74.3037 35.3425 74.3037 34.9553Z" fill="#09D78E"/>
<path id="Vector_7" d="M76.2834 36.9268C76.2179 36.8259 76.1879 36.7059 76.1961 36.5723C76.2043 36.4387 76.2806 36.3241 76.4252 36.2287C76.5261 36.1632 76.6324 36.136 76.7469 36.1469C76.8615 36.1578 76.9651 36.215 77.0687 36.3159C77.2705 36.5423 77.4995 36.7195 77.7504 36.8504C78.0013 36.9813 78.304 37.0467 78.6584 37.0467C78.803 37.0386 78.9529 37.0167 79.1057 36.9758C79.2584 36.9349 79.3892 36.864 79.4983 36.7577C79.6074 36.6541 79.6619 36.4986 79.6619 36.2941C79.6619 36.1114 79.6047 35.9669 79.4874 35.8578C79.3702 35.7488 79.2175 35.6588 79.0293 35.5906C78.8411 35.5224 78.6366 35.4597 78.4185 35.3997C78.1867 35.3343 77.9522 35.2607 77.7177 35.1816C77.4805 35.1025 77.2678 34.9989 77.0796 34.8707C76.8915 34.7426 76.736 34.5789 76.616 34.3744C76.4961 34.1726 76.4361 33.9218 76.4361 33.6218C76.4361 33.281 76.5315 32.9865 76.7251 32.7383C76.916 32.4929 77.1669 32.2993 77.4777 32.1602C77.7859 32.0212 78.1213 31.953 78.4839 31.953C78.6939 31.953 78.9175 31.9803 79.1493 32.0348C79.3811 32.0893 79.6074 32.1739 79.8255 32.2911C80.0437 32.4057 80.2318 32.5584 80.3927 32.7492C80.4636 32.8447 80.5072 32.9565 80.5182 33.0874C80.5291 33.2183 80.4691 33.3328 80.3382 33.4364C80.2509 33.51 80.1446 33.5428 80.0219 33.5346C79.8992 33.5264 79.7955 33.4882 79.7165 33.4146C79.5774 33.2401 79.4002 33.1037 79.182 33.0056C78.9639 32.9074 78.7184 32.8583 78.443 32.8583C78.304 32.8583 78.1622 32.8774 78.0122 32.9183C77.8622 32.9592 77.7368 33.0301 77.6359 33.131C77.535 33.2319 77.4832 33.3819 77.4832 33.5782C77.4832 33.7609 77.5432 33.9054 77.6632 34.0145C77.7831 34.1236 77.9413 34.2136 78.1376 34.2872C78.334 34.3608 78.5466 34.4262 78.7784 34.4835C79.0048 34.5408 79.2256 34.6117 79.4465 34.6907C79.6674 34.7698 79.8664 34.8734 80.0464 35.0016C80.2237 35.1298 80.3682 35.2907 80.4827 35.4924C80.5945 35.6915 80.6518 35.9451 80.6518 36.2505C80.6518 36.605 80.5482 36.9104 80.3409 37.1585C80.1337 37.4094 79.8719 37.6003 79.5583 37.7312C79.242 37.8621 78.9093 37.9275 78.563 37.9275C78.1485 37.9275 77.7368 37.8539 77.3277 37.7039C76.9187 37.5567 76.5697 37.2949 76.2861 36.9268H76.2834Z" fill="#09D78E"/>
</g>
<path id="Vector_8" d="M159.654 6.10268H155.896L153.764 9.83845H156.722L159.654 6.10268ZM98.2917 22.401C96.4347 22.401 92.0717 20.9312 92.0717 16.0338C92.0717 15.1667 92.4399 13.487 93.1379 12.4289H89.9121C89.5058 13.2443 89.1868 14.804 89.1868 16.0338C89.1868 19.107 91.48 25.1387 98.2917 25.1387C103.374 25.1387 106.259 21.373 106.829 18.5943H104.01C103.751 19.9223 101.875 22.3983 98.2917 22.401ZM76.4633 11.3573C74.4973 11.3573 73.0793 12.1972 72.2831 12.9171L69.4962 11.6545V24.8143H72.2831V18.4716C72.2831 16.451 73.1284 13.9942 76.0897 13.9942C78.5875 13.9942 79.0511 16.3501 79.0511 17.3754V24.8143H81.8379V17.0264C81.8379 14.9649 80.7881 11.3546 76.4633 11.3546M60.5468 11.3546C57.4273 11.3546 55.254 13.1734 54.8613 15.982H57.5909C57.5909 14.7822 59.0334 13.9151 60.6477 13.9151C62.491 13.9151 63.3336 15.1612 63.3336 16.6528H59.6524C55.9275 16.6528 54.2778 18.6816 54.2778 20.934C54.2778 22.93 55.7203 25.1387 59.1779 25.1387C61.3021 25.1387 62.8128 24.1162 63.3309 23.639L66.0686 24.817V16.4074C66.0686 14.3814 65.0188 11.3573 60.544 11.3573M59.3688 22.6764C57.6645 22.6764 56.9882 21.6293 56.9882 20.9121C56.9882 19.4587 58.4117 19.047 59.6251 19.047H63.3309C63.3309 20.6313 62.2374 22.6791 59.3688 22.6791M45.2547 14.4359C43.8912 14.1523 42.0833 13.9287 41.8843 12.4317H38.8902C39.2965 15.2976 40.3709 16.3092 45.2547 17.2909C47.5588 17.7545 49.3531 17.8744 49.3531 19.846C49.3531 21.8175 47.3625 22.5073 45.7455 22.5073C43.6622 22.5073 41.2517 21.2639 41.2517 19.2733H38.293C38.293 22.112 40.9244 25.1442 45.571 25.1442C50.8501 25.1442 52.2135 21.7029 52.2135 19.7451C52.2135 16.0638 49.4813 15.3139 45.2547 14.4359M120.325 9.71847H123.136V7.23705H120.325V9.71847ZM155.566 11.39C151.727 11.39 148.613 14.4632 148.613 18.2535C148.613 22.0438 151.727 25.1197 155.566 25.1197C159.406 25.1197 162.52 22.0465 162.52 18.2535C162.52 14.4604 159.406 11.39 155.566 11.39M155.566 22.5728C153.202 22.5728 151.285 20.6395 151.285 18.2562C151.285 15.8729 153.202 13.9396 155.566 13.9396C157.93 13.9396 159.847 15.8729 159.847 18.2562C159.847 20.6395 157.93 22.5728 155.566 22.5728ZM187.007 11.3628C183.887 11.3628 181.714 13.1816 181.321 15.9902H184.051C184.051 14.7904 185.493 13.926 187.105 13.926C188.948 13.926 189.791 15.1721 189.791 16.6637H186.11C182.385 16.6637 180.735 18.6925 180.735 20.9421C180.735 22.9382 182.177 25.1442 185.635 25.1442C187.762 25.1442 189.27 24.1216 189.791 23.6444L192.528 24.8224V16.4129C192.528 14.3868 191.479 11.3628 187.004 11.3628M185.826 22.6819C184.122 22.6819 183.445 21.6348 183.445 20.9176C183.445 19.4615 184.872 19.0524 186.082 19.0524H189.788C189.788 20.6367 188.695 22.6819 185.826 22.6819ZM172.224 11.3628C169.945 11.3628 168.23 12.5707 167.796 12.947V6.01542H165.009V24.8224L167.796 23.5626C168.227 23.9389 169.702 25.1469 172.224 25.1469C175.529 25.1469 178.793 22.5728 178.793 18.2535C178.793 15.5784 176.898 11.36 172.224 11.36M171.924 22.5537C170.357 22.5537 167.796 21.3593 167.796 18.2508C167.796 16.2111 169.424 13.9233 171.924 13.9233C174.161 13.9233 176.053 15.5784 176.053 18.2508C176.053 20.514 174.529 22.5537 171.924 22.5537ZM195.119 24.8197H197.906V6.00452H195.119V24.8115V24.8197ZM112.321 12.9225L109.534 11.66V24.8197H112.321V18.4744C112.321 15.6902 113.728 13.9969 116.128 13.9969C116.848 13.9969 117.963 14.2232 117.963 14.2232L118.179 11.6C117.603 11.4446 117.039 11.36 116.501 11.36C114.445 11.36 113.093 12.2026 112.321 12.9225M120.316 24.8197H123.128V11.66H120.316V24.8197ZM131.395 16.8028C130.447 16.6065 129.037 16.4483 129.037 15.3658C129.037 14.3732 129.988 13.7978 131.3 13.7978C132.972 13.7978 134.062 14.8422 134.215 15.6657H136.912C136.686 14.1441 135.431 11.36 131.349 11.36C128.05 11.36 126.25 13.247 126.25 15.5157C126.25 17.7845 127.919 18.8343 131.393 19.4451C132.909 19.7096 134.259 20.075 134.259 21.0403C134.259 21.8202 133.555 22.6819 131.772 22.6819C129.988 22.6819 128.652 21.6729 128.513 20.6176H125.762C125.762 22.4719 127.33 25.1469 131.622 25.1469C134.079 25.1469 137.021 24.0371 137.021 20.9149C137.021 18.2535 134.989 17.55 131.393 16.8055M146.099 14.3759L147.427 11.66H142.685V7.75515H139.873V20.544C139.873 22.9082 141.218 25.1469 144.378 25.1469C145.447 25.1469 146.565 24.5797 147.039 24.2225V21.2857C146.238 21.8856 145.283 22.4583 144.501 22.4583C143.173 22.4583 142.685 21.5366 142.685 20.4186V14.3759H146.099V14.3759Z" fill="#171669"/>
<path id="Vector_9" d="M40.4309 10.6047C40.4336 10.621 40.439 10.6374 40.4445 10.6537C40.4554 10.6919 40.4663 10.7328 40.4772 10.771C40.7308 11.5454 41.3716 12.0771 41.6934 12.3035C41.7561 12.3444 41.8188 12.388 41.887 12.4262C41.6852 10.6047 43.1904 9.53846 45.1974 9.53846C47.9324 9.53846 49.1513 11.6572 49.1513 12.598C49.8112 12.598 51.3055 12.5952 52.039 12.598C51.7282 10.4683 50.2775 6.92615 45.2465 6.92615C43.0541 6.92615 41.5898 7.65421 40.8753 8.61406C40.8753 8.61406 40.8753 8.61406 40.8753 8.61679C40.5372 9.12398 40.3927 9.58754 40.3736 10.0075C40.3736 10.0402 40.3736 10.0729 40.3736 10.1056C40.3736 10.1302 40.3736 10.1575 40.3736 10.182C40.379 10.3238 40.4009 10.4656 40.4336 10.6047" fill="#09D78E"/>
<path id="Vector_10" d="M98.2889 6.92346C93.986 6.92346 90.7601 9.75119 93.1297 12.4235C94.1496 11.0383 95.7802 9.66121 98.2889 9.66121C101.449 9.66121 103.568 11.5754 104.004 13.3452H106.829C106.434 11.3546 104.152 6.92619 98.2862 6.92619" fill="#09D78E"/>
<path id="Vector_11" d="M29.6953 8.89768C27.1866 3.6376 21.8202 0 15.6057 0C9.39123 0 4.13661 3.56125 1.5952 8.73134C1.5243 8.87586 1.5952 9.05583 1.7479 9.11037L3.20131 9.64483C3.32947 9.69119 3.47127 9.63392 3.53126 9.51394C5.76454 5.10192 10.3238 2.06967 15.6057 2.06967C21.4875 2.06967 26.4858 5.82453 28.3509 11.0655C28.4355 11.3027 28.76 11.3191 28.8581 11.0873L29.7007 9.12946C29.7335 9.05583 29.7307 8.9713 29.6953 8.89768V8.89768ZM19.456 16.7592C18.7661 16.5874 18.578 17.2118 19.246 17.6917C20.0368 18.2562 19.9659 17.7572 19.9659 17.7572C19.9659 17.7572 20.5904 18.3053 20.7676 17.9481C20.923 17.6345 20.1459 16.9309 19.456 16.7592V16.7592ZM28.9999 12.748C28.7709 12.6553 28.5964 12.6334 28.4655 12.6444C28.2882 12.6607 28.1355 12.7807 28.0728 12.9498L23.6526 23.4944C23.5299 23.4535 23.4045 23.4208 23.2681 23.4126C22.6437 23.5272 22.2483 23.9471 21.9183 24.487C21.9047 24.5334 21.9074 24.577 21.9074 24.6234C21.7411 24.6724 21.5747 24.6943 21.4275 24.6588C20.8412 24.0943 20.5822 23.3499 20.4649 22.8318C20.8494 23.2054 21.3921 23.3499 21.7438 23.3936C21.8665 23.4099 21.9565 23.2736 21.8911 23.1672C21.8256 23.0609 21.7574 22.9245 21.7084 22.7527C22.1147 23.0472 22.8345 22.9873 23.2327 22.9273C23.3417 22.9109 23.3936 22.7882 23.3336 22.6955C23.2736 22.6028 23.2218 22.4719 23.2245 22.2946C23.2299 21.872 23.7971 21.4084 23.7971 21.4084H23.7917C23.8489 21.3566 23.9062 21.3048 23.9635 21.253C24.2552 20.953 24.8442 20.2359 24.9751 19.2133C25.1524 17.8417 24.7706 17.2445 24.7706 17.2445C24.7706 17.2445 25.1224 17.3209 25.3187 16.95C25.5423 16.5192 25.3978 15.8947 25.3051 15.6002C24.5634 13.5469 22.5973 12.0799 20.2904 12.0908C19.4478 12.0935 18.657 12.298 17.9535 12.6498C17.5036 12.159 17.1709 11.5454 17.1027 10.8964C17.1027 10.8964 17.1064 10.8928 17.1136 10.8855C17.3018 10.9346 17.5772 10.9483 17.9481 10.7956C18.008 10.771 18.0026 10.6865 17.9426 10.6647C17.8281 10.6238 17.7408 10.542 17.6754 10.4492C18.567 10.3947 19.2733 9.65846 19.2706 8.75315C19.2706 8.47229 19.1942 8.21051 19.0715 7.97873C19.3578 6.46534 18.8425 4.32749 16.4756 3.58307C14.8067 3.05679 13.2797 3.68123 12.6225 4.40657C12.1617 4.91376 12.0008 5.79181 12.3308 6.28809C12.1862 6.6753 12.1263 7.10069 12.1944 7.47972C12.2271 7.90238 11.9463 7.976 11.6491 8.1996C11.3982 8.45047 11.5291 8.84041 11.7036 9.03129C11.4418 10.0102 11.7636 11.0737 12.8789 11.3818C12.8734 11.4609 12.8761 11.4364 12.8707 11.5154C11.4282 11.6872 9.98841 12.1426 8.67135 12.7289C7.98418 13.0643 7.20431 13.2497 6.43534 13.1952C5.74818 13.1597 5.06374 12.977 4.43657 12.6689C4.33295 12.6089 4.19388 12.5216 4.05208 12.4044C3.82575 12.2135 3.56398 11.9735 3.08678 11.8481C2.54141 11.7036 1.62792 11.8127 1.27071 11.8754C1.03347 11.9163 0.908037 12.3689 1.50522 12.5189C1.57339 12.5353 1.63883 12.5516 1.70427 12.5707C1.60883 12.6798 1.5243 12.7889 1.49703 12.8625C1.43159 13.0479 1.60883 13.2443 1.90606 13.1461C2.07512 13.0916 2.2551 12.9661 2.42689 12.808C2.53051 12.8489 2.60413 12.8843 2.63685 12.9061C2.79774 13.0097 2.78683 13.2743 2.35054 13.277C1.82971 13.277 1.67155 13.5497 1.70427 13.7215C1.75336 13.9805 2.05604 13.8796 2.42416 13.9505C2.79228 14.0214 2.80319 14.1387 3.44945 14.1823C3.66214 14.1986 3.95664 14.4223 3.95664 14.4223H3.97573C4.30022 14.6595 4.63563 14.8776 4.98739 15.0767C6.26628 15.8538 7.81785 16.0774 9.29034 15.8757C9.28489 15.9084 9.27943 15.9411 9.27125 15.9765L9.17854 16.6064C9.17854 16.6064 9.17854 16.6228 9.17854 16.631C8.67135 17.6399 8.49138 18.8261 8.68498 19.9523C8.39866 20.0995 8.09598 20.3449 7.81512 20.754C6.89618 22.0928 7.75513 23.3745 7.81239 24.6561C7.82057 24.8551 7.67878 25.9813 7.60243 26.5021C4.33295 24.0943 2.17602 20.2577 2.08058 15.9084C2.08058 15.7993 2.00968 15.7011 1.90606 15.663L0.436294 15.123L0.133615 15.0031C0.133615 15.0031 0 14.9567 0 15.1258C0 15.2921 0 15.6221 0 15.6221C0.0109074 24.547 7.51244 31.7159 16.5546 31.1787C17.5636 31.1187 18.5643 30.936 19.5433 30.6769C19.8514 30.5951 20.1568 30.5079 20.4595 30.4097C21.2094 30.167 21.9538 29.8343 22.6628 29.4771H22.6655C22.69 29.4662 22.7146 29.4526 22.7391 29.4417C22.7555 29.4335 22.7746 29.4253 22.7909 29.4171C22.8046 29.4062 22.8182 29.4008 22.8345 29.3926C22.8918 29.3599 22.9463 29.3353 22.9927 29.2863C23.02 29.259 23.0472 29.229 23.0718 29.199C23.1945 29.0926 23.3336 28.959 23.4481 28.8009C23.5353 28.6809 23.0636 28.171 22.8755 27.9774C22.8973 27.9719 22.9245 27.9665 22.9463 27.961C22.9027 27.9365 22.2674 27.6556 22.2674 27.6556C22.0001 27.4974 21.8365 27.4511 21.8556 27.1484C21.8556 27.0502 21.9074 26.9903 21.9674 26.9357C22.4582 26.9439 22.8945 27.0993 23.2572 27.0639C23.2681 27.0502 23.2654 27.0284 23.249 27.0175C22.8891 26.7694 22.4882 26.524 22.0492 26.5321C22.0301 26.3903 21.9974 26.2431 22.022 26.1313C22.0356 26.0822 22.101 26.0222 22.1501 25.984C22.3764 25.8941 22.6382 25.7823 22.8373 25.8286C22.9409 25.8559 23.05 25.9022 23.159 25.9513C23.369 26.0495 23.5872 26.1613 23.8053 26.2049C23.6608 25.9186 23.2763 25.6923 22.9709 25.4959C22.7773 25.4196 22.5946 25.4196 22.4228 25.4578C22.3546 25.4741 22.2865 25.4932 22.221 25.5178C22.2128 25.4578 22.2128 25.4005 22.221 25.3487C22.221 25.3487 22.221 25.3432 22.221 25.3405C22.2265 25.2314 22.3464 25.1769 22.4173 25.1169C22.6709 25.0024 22.9763 24.8579 23.1863 24.8742C23.4972 24.9669 23.8326 25.2478 24.1216 25.4387C24.1489 25.4605 24.1871 25.425 24.168 25.395C23.669 24.6234 23.2299 24.3479 22.5564 24.6097C22.4991 24.6343 22.4392 24.6534 22.3764 24.6861C22.371 24.667 22.3655 24.6452 22.3628 24.6206C22.4419 24.5088 22.5482 24.367 22.6737 24.2361C22.9054 23.988 23.1999 23.778 23.4944 23.8817C23.4944 23.8817 23.4999 23.8817 23.5026 23.8817C23.7726 23.9907 24.0071 24.1762 24.2171 24.3916C24.3998 24.5797 24.5634 24.7924 24.7133 24.9997L24.8006 24.7815L24.8824 24.5715L24.9069 24.5088L29.5153 13.4979C29.5889 13.3097 29.5371 13.0916 29.3817 12.9634C29.2944 12.8898 29.1717 12.8161 28.9972 12.7425L28.9999 12.748ZM12.1426 9.60665C12.3035 9.57938 12.4317 9.51121 12.5162 9.44032C12.5925 9.37487 12.568 9.25216 12.4726 9.22217L12.1726 9.12673C12.1808 9.06947 12.189 9.01493 12.1999 8.96039C12.2217 8.85132 12.1181 8.76951 12.039 8.71225C11.9954 8.67407 11.9545 8.61681 11.9517 8.56773C11.949 8.55409 11.9517 8.53228 11.9545 8.51864C12.1426 8.4123 12.3908 8.24869 12.4916 8.00327C12.5244 7.92419 12.538 7.84784 12.5489 7.76876C12.5953 7.81239 12.6553 7.84512 12.7289 7.8533C13.1215 7.90238 13.1161 7.58607 13.1161 7.58607L13.5524 7.69514C13.5115 7.32429 13.0616 7.08705 12.7507 7.15523C12.6634 7.17431 12.598 7.21794 12.5462 7.26703C12.5326 7.04888 12.5271 6.83073 12.6389 6.62077C12.7398 6.36717 12.8734 6.10812 13.0097 5.8627C13.0316 5.84362 13.0534 5.8218 13.0725 5.79726C13.2415 6.1572 13.6669 6.28809 14.0759 6.24173C13.716 6.94526 13.4433 7.88329 14.3514 8.25141C14.4768 8.29232 14.6649 8.19415 14.7113 8.12325C15.892 6.48715 16.5001 9.09673 14.7904 8.85132C14.6731 8.87041 14.6513 8.92767 14.6758 8.99857C14.6758 8.99857 14.6731 8.99857 14.6704 8.99857C14.6813 9.02038 14.6922 9.03947 14.7031 9.06129C14.7031 9.06129 14.7031 9.06401 14.7058 9.06674C15.1367 9.96387 15.7939 10.3974 16.3665 10.6047C16.2356 11.5645 15.723 12.5216 14.9322 13.0888C14.6895 13.277 14.4277 13.416 14.1523 13.5333C14.2205 13.0752 14.2259 12.6171 14.1114 12.1672C14.1305 12.0935 14.0514 11.979 14.0678 12.0063C14.0678 12.0063 14.065 12.0063 14.0623 12.0008C14.0378 11.9272 14.0105 11.8563 13.9805 11.7827C13.956 11.5863 13.8632 11.4173 13.7324 11.2728C13.9042 11.1855 14.0732 11.0655 14.1796 10.9046C14.2314 10.8256 14.155 10.7247 14.065 10.7519C13.4706 10.9292 13.0425 10.8146 12.9852 10.7983C12.3908 10.6156 12.1617 10.1466 12.1399 9.60938L12.1426 9.60665ZM5.23008 14.4904C4.99557 14.395 4.48565 14.1687 3.93483 13.8223C3.71668 13.686 3.43854 13.5797 3.15495 13.6124C2.94499 13.6369 2.93408 13.4679 3.10587 13.3479C3.29129 13.217 3.30493 12.9552 3.13859 12.778C2.94226 12.568 2.4787 12.4535 2.36962 12.4017C2.26055 12.3499 2.26055 12.3144 2.65594 12.3226C2.81955 12.3253 3.08405 12.3662 3.30493 12.4862C3.56398 12.628 3.74668 12.8298 3.9321 12.9607C3.9321 12.9607 3.9321 12.9607 3.93483 12.9634C3.93756 12.9634 3.94028 12.9661 3.94301 12.9688C3.95392 12.977 3.96482 12.9879 3.97573 12.9934C3.98664 13.0016 4.00027 13.007 4.01118 13.0125C5.07737 13.7269 6.42716 14.0378 7.70332 13.8278C9.60938 13.2988 11.3518 12.3935 13.3451 12.2108C13.506 12.7016 13.4651 13.307 13.3533 13.806C12.7971 13.9205 11.8808 14.1796 10.9428 14.6159C10.3238 14.9049 9.7839 15.0303 9.54666 15.074C8.04145 15.3194 6.60986 15.0276 5.22462 14.4877L5.23008 14.4904ZM8.20506 26.933C8.3114 26.1804 8.40412 24.6643 8.2596 24.2034C8.06054 23.5735 7.70059 22.1992 8.27323 21.2284C8.85677 20.2413 9.45668 20.3422 9.45668 20.3422C9.12946 20.8549 8.80224 21.5584 8.59227 22.1719C8.56773 22.2428 8.66589 22.2865 8.70407 22.2237C9.2358 21.3566 10.4929 19.3442 11.1282 18.6025C11.1746 18.5507 11.2591 18.597 11.24 18.6625C11.0028 19.4505 10.422 20.9285 10.1411 21.662C10.1138 21.7302 10.2093 21.782 10.2502 21.7193C10.6319 21.1439 11.24 20.0232 11.5263 19.2515C11.889 19.7014 11.4418 21.2366 10.8528 22.3819C10.8201 22.4446 10.8992 22.5046 10.951 22.4555C11.5863 21.8365 12.0008 20.7294 12.0008 20.7294C12.0526 20.9721 12.0799 21.2175 12.0935 21.4657C12.0935 21.5966 12.0526 22.0601 11.5918 22.8591C11.5591 22.9191 11.63 22.9818 11.6845 22.9382C11.8318 22.8182 11.9436 22.6791 12.0335 22.5482C11.8481 23.8953 10.7792 26.2758 9.90933 27.8656C9.32034 27.5902 8.7477 27.2848 8.20779 26.9303L8.20506 26.933ZM14.7195 19.1533C14.7195 19.1533 14.6813 19.2733 14.6349 19.5378C14.6349 19.5569 14.6295 19.5732 14.6268 19.5923C14.5231 20.225 14.3923 21.5747 14.564 23.8871C14.6486 24.9997 14.3595 27.4756 13.8251 29.0081C12.7371 28.8663 11.6927 28.5964 10.7028 28.2119C11.2782 26.8321 12.4617 24.1871 12.5953 22.4037C12.7125 20.8303 12.2735 20.135 12.2735 20.135C12.2081 18.9215 11.7254 18.6379 11.7254 18.6379C11.8563 18.1144 11.4827 17.7817 10.9946 18.1144C10.3484 18.5534 9.77026 19.7559 9.77026 19.7559C9.77026 19.7559 9.52485 19.7014 9.17309 19.775C9.07219 17.749 10.122 15.6384 12.1808 15.0767C13.2606 14.6704 14.5095 14.5368 15.453 13.7705C15.9984 13.3479 16.4156 12.7998 16.6964 12.1862C16.8437 12.4998 17.0318 12.7943 17.2527 13.0643C15.8866 14.0323 14.9976 15.6221 15.0031 17.4245C15.0031 17.7381 15.0358 18.0435 15.0876 18.3407C14.9294 18.5916 14.804 18.8643 14.7222 19.1533H14.7195ZM16.4783 19.8432C15.8566 19.6741 15.7857 19.9168 15.8293 20.0286C15.8647 20.1132 15.892 20.2195 15.8266 20.2495C15.6875 20.315 15.6084 20.0259 15.7666 19.7341C15.9247 19.4424 16.3201 19.2569 16.8546 19.3633C17.3891 19.4724 18.0708 19.8787 18.3107 20.5685C18.548 21.2584 18.1635 21.3212 17.5745 21.1085C17.1 20.9394 17.07 20.8194 17.1245 20.7403C17.1682 20.6776 17.3045 20.7131 17.3591 20.5631C17.43 20.3668 17.1027 20.0123 16.481 19.8432H16.4783ZM15.9875 18.7088C16.0584 18.1117 16.0665 17.4409 16.0638 17.0537C16.0611 16.7673 16.2438 16.5056 16.5192 16.4319C16.6474 16.3992 16.7864 16.4047 16.9173 16.5056C17.3727 16.8519 16.9555 17.9453 15.9875 18.7088ZM19.0524 27.2657C18.398 26.5349 16.9882 25.5832 16.1838 25.2069C16.1756 25.2042 16.1674 25.1987 16.162 25.196C16.012 25.1278 15.8757 25.0706 15.7775 25.0487C15.4994 24.0698 15.5021 22.9109 15.5321 22.2483C15.5593 22.2755 15.5893 22.2974 15.6166 22.3246C15.6875 22.3873 15.7584 22.4473 15.8348 22.5073C16.3638 22.9109 17.0237 23.1509 17.7381 23.1481C18.2262 23.1481 18.6843 23.0309 19.0961 22.8291C18.9652 23.3636 18.7497 24.5825 19.1833 25.5287C19.456 25.5287 19.6142 25.4278 19.6142 25.4278C19.6142 25.4278 19.5024 26.7394 19.0551 27.2684L19.0524 27.2657ZM20.1868 19.7669C20.0668 19.7887 19.955 19.8159 19.8541 19.8459C19.336 20.0068 18.7607 19.8296 18.4362 19.3933C17.899 18.6761 16.9282 18.458 16.9282 18.458C17.3672 17.9099 17.7272 17.3427 17.9726 16.9228C18.1826 16.5628 18.0926 16.1047 17.7599 15.8538L17.1682 15.4066C17.5036 15.1367 17.9044 14.5559 18.5998 14.2559C18.5698 14.3732 18.5507 14.5068 18.5616 14.654C18.5725 14.7795 18.7225 14.8367 18.8152 14.7495C19.6305 13.9778 20.5685 14.2041 20.5685 14.2041C20.3695 15.5948 21.4766 16.5383 21.4766 16.5383C21.4766 16.5383 22.1747 17.1109 22.0438 18.0435C21.9129 18.9761 21.3048 19.5733 20.1841 19.7641L20.1868 19.7669Z" fill="#171669"/>
</g>
</g>
</svg>
